<svg width="387" height="37" viewBox="0 0 387 37" fill="none" xmlns="http://www.w3.org/2000/svg">
<path fill-rule="evenodd" clip-rule="evenodd" d="M35.5011 17.6162C35.3762 16.6109 34.6265 15.8569 33.7518 15.8569C33.5019 15.8569 26.6293 15.3542 20.8814 21.5119C19.3819 23.1456 18.3823 24.7793 17.7575 26.4129C17.1327 24.7793 16.1331 23.1456 14.6336 21.5119C8.8857 15.3542 2.01317 15.8569 1.76326 15.8569C0.763615 15.9825 0.0138839 16.7366 0.0138839 17.6162C0.0138839 17.9932 -0.485937 25.4076 4.51227 30.9369C10.3852 37.346 16.1331 36.969 17.8825 36.969C19.6318 36.969 25.3798 37.346 31.1277 30.9369C36.001 25.4076 35.5011 17.8676 35.5011 17.6162ZM14.8835 32.6963C13.1342 32.445 10.1353 31.5653 7.13633 28.2979C4.63723 25.5333 3.88749 22.0146 3.63758 19.8782C5.63687 20.1296 8.76074 21.1349 11.6347 24.1509C14.6336 27.2926 14.8835 30.6856 14.8835 32.6963ZM28.0038 28.2979C25.0049 31.5653 22.006 32.445 20.2566 32.6963C20.1317 30.8113 20.5065 27.2926 23.5055 24.1509C26.3794 21.1349 29.5033 20.1296 31.5026 19.8782C31.2527 22.0146 30.6279 25.5333 28.0038 28.2979ZM2.7629 13.5949C1.6383 13.4692 0.88857 12.4639 1.13848 11.4585C1.26344 10.3275 2.26308 9.57352 3.26272 9.82486C3.38767 9.82486 6.63651 10.0762 10.885 11.9612C15.7582 14.0975 17.8825 16.6109 18.1324 16.8622C18.7572 17.7419 18.5072 18.9986 17.6326 19.6269C16.7579 20.2552 15.5083 20.0039 14.8835 19.1242C14.8835 19.1242 13.0092 17.2392 9.13561 15.4799C5.51191 13.8462 2.7629 13.5949 2.7629 13.5949ZM12.7593 4.79817C14.0089 5.0495 15.1335 5.80351 15.1335 5.80351C16.0081 6.43184 17.2577 6.05484 17.7575 5.17517C18.3823 4.2955 18.0074 3.03883 17.1327 2.53616C17.0078 2.41049 15.3834 1.40516 13.509 1.02815C12.5094 0.77682 11.3848 1.40516 11.1349 2.53616C11.1349 3.5415 11.7597 4.54684 12.7593 4.79817ZM6.13669 8.56818C6.13669 8.56818 8.51083 8.94519 10.76 9.82486C11.8846 10.3275 12.8843 10.8302 13.634 11.3329C14.3837 11.8355 14.8835 12.2125 14.8835 12.2125C15.7582 12.8409 17.0078 12.7152 17.6326 11.8355C18.2573 10.9559 18.1324 9.69919 17.2577 9.07085C17.1327 8.94519 14.6336 7.06018 12.0096 6.05484C9.26056 4.92384 6.88642 4.6725 6.76146 4.54684C5.76182 4.54684 4.76218 5.30084 4.51227 6.30618C4.38731 7.43718 5.01209 8.44252 6.13669 8.56818Z" fill="#F15D43"/>
<path fill-rule="evenodd" clip-rule="evenodd" d="M66.8656 8.06452H59.6182C59.7432 6.93352 60.243 5.67685 60.9927 4.92285C61.8674 4.04318 63.2419 3.54051 64.7414 3.54051H74.238V1.15283H64.6164C62.3672 1.15283 59.4932 2.0325 58.1187 4.54584C57.2441 6.17952 56.9941 8.06453 56.9941 9.6982V20.8826C56.9941 22.6419 57.1191 24.5269 58.1187 26.4119C60.243 30.1819 64.3665 30.1819 66.2408 30.1819C68.7399 30.1819 72.2387 29.8049 74.113 26.6633C75.4875 24.4013 75.6125 21.1339 75.6125 18.7462C75.6125 16.1072 75.4875 13.4682 74.113 11.4575C72.2387 8.31586 68.49 8.06452 66.8656 8.06452ZM71.4889 26.0349C70.1144 27.6686 67.8652 27.7943 66.2408 27.7943C63.4918 27.7943 61.7424 27.0403 60.7428 25.5323C60.118 24.5269 59.7432 23.0189 59.7432 21.3852V10.4522H66.9906C69.3647 10.4522 70.7392 11.2062 71.364 11.9602C72.9884 13.5939 72.9884 16.2329 72.9884 18.4949C72.9884 21.3852 72.7385 24.4013 71.4889 26.0349ZM93.3561 9.3212C91.6067 8.31586 89.3575 8.06452 87.7331 8.06452C85.8588 8.06452 82.9848 8.31586 80.8606 10.0752C78.1116 12.3372 77.8617 15.9816 77.8617 19.1232C77.8617 22.5162 77.9866 25.1553 79.611 27.2916C80.9855 29.0509 82.9848 30.0563 85.4839 30.0563H95.3554V27.6686H85.4839C82.2351 27.6686 81.2354 24.9039 80.9855 24.1499C80.7356 23.1446 80.6107 21.3852 80.6107 20.1286H93.3561C94.3557 20.1286 95.2304 19.8772 95.7302 19.3746C96.355 18.8719 96.7299 17.8666 96.7299 16.3586C96.9798 13.2169 95.6053 10.7035 93.3561 9.3212ZM94.1058 16.4842C94.1058 16.7356 94.1058 17.2382 93.8559 17.4896C93.731 17.6152 93.606 17.6152 93.481 17.6152H80.7356C80.7356 15.8559 80.8606 14.2222 81.7353 12.9655C83.2347 10.4522 85.4839 10.4522 87.4832 10.4522C89.2326 10.4522 91.3568 10.4522 92.8563 12.2115C93.3561 12.9655 94.1058 14.2222 94.1058 16.4842ZM109.85 9.57253C109.225 7.93886 108.101 7.68752 107.476 7.68752C106.851 7.68752 105.852 7.93886 105.102 9.57253L97.1048 29.5536L96.9798 29.9306H99.8538L99.9787 29.8049L107.351 11.0805V10.9549C107.351 10.8292 107.476 10.7035 107.476 10.5779C107.476 10.7035 107.601 10.8292 107.601 10.9549L114.973 29.6793L115.098 29.8049H117.972L117.847 29.4279L109.85 9.57253ZM221.185 7.93886H209.439C207.94 7.93886 207.315 8.69286 207.065 8.94419C206.69 9.57253 206.565 10.4522 206.565 11.3319V29.9306H209.19V11.3319C209.19 10.8292 209.314 10.5779 209.314 10.4522C209.314 10.4522 209.689 10.3265 209.814 10.3265H220.81C220.935 10.3265 221.31 10.4522 221.31 10.4522C221.31 10.4522 221.435 10.8292 221.435 11.3319V29.9306H224.059V11.3319C224.059 10.5779 224.059 9.6982 223.559 8.94419C223.309 8.56719 222.685 7.93886 221.185 7.93886ZM236.68 8.06452H231.307C230.557 8.06452 229.557 8.19019 228.808 8.81853C228.433 9.06986 227.683 9.82386 227.683 11.0805V36.968H230.307V30.0563H236.055C239.429 30.0563 242.053 29.5536 243.802 26.7889C245.427 24.2756 245.551 21.3852 245.551 18.7462C245.551 16.4842 245.551 13.0912 243.177 10.5779C241.678 8.81853 239.429 8.06452 236.68 8.06452ZM241.678 25.2809C240.678 26.7889 238.929 27.5429 236.93 27.5429H230.307V11.2062C230.307 10.9549 230.307 10.8292 230.557 10.5779C230.682 10.4522 230.932 10.3265 231.057 10.3265H237.18C238.054 10.3265 240.928 10.5779 242.053 13.3425C242.553 14.4735 242.802 16.2329 242.802 18.8719C242.802 22.1392 242.428 23.8986 241.678 25.2809ZM258.547 7.81319C255.798 7.81319 252.674 8.06452 250.425 10.2009C248.55 11.9602 247.676 14.8506 247.676 18.8719C247.676 23.8986 249.175 26.4119 250.425 27.6686C252.674 29.9306 256.173 30.1819 258.547 30.1819C260.921 30.1819 264.295 29.9306 266.669 27.6686C267.918 26.4119 269.418 23.8986 269.418 18.8719C269.418 14.8506 268.543 11.9602 266.669 10.2009C264.42 8.06452 261.296 7.81319 258.547 7.81319ZM266.544 19.1232C266.544 20.7569 266.544 23.8986 264.92 25.7836C263.295 27.5429 260.796 27.7943 258.547 27.7943C256.298 27.7943 253.799 27.5429 252.174 25.7836C250.55 23.8986 250.55 20.8826 250.55 19.1232V18.9976C250.55 17.2382 250.55 13.8452 252.174 11.9602C253.674 10.3265 256.423 10.0752 258.547 10.0752C260.671 10.0752 263.42 10.3265 264.92 11.9602C266.544 13.8452 266.544 17.2382 266.544 19.1232ZM292.91 7.81319C291.785 7.81319 291.035 8.31586 290.66 9.44686L283.538 26.6633V26.7889C283.538 26.9146 283.413 27.0403 283.413 27.1659C283.413 27.0403 283.288 26.9146 283.288 26.7889V26.6633L276.166 9.44686C275.666 8.31586 275.041 7.81319 273.916 7.81319C272.542 7.81319 271.667 8.69286 271.667 10.3265V30.0563H274.291V11.2062C274.916 12.7142 281.414 28.5483 281.414 28.5483C281.913 29.6793 282.913 30.3076 283.538 30.3076C284.288 30.3076 285.287 29.8049 285.662 28.5483C285.662 28.5483 292.16 12.7142 292.785 11.2062V29.9306H295.409V10.2009C295.159 8.69286 294.284 7.81319 292.91 7.81319ZM132.092 8.06452H119.722V11.8345H130.468C131.218 11.8345 132.092 11.9602 132.842 12.8399C133.342 13.4682 133.467 14.2222 133.467 14.8505V16.3586H123.97C122.846 16.3586 121.346 16.4842 119.972 17.6152C118.347 18.9976 118.097 21.0082 118.097 22.8932C118.097 24.5269 118.222 27.2916 119.972 28.7996C121.221 29.9306 122.721 29.9306 123.97 29.9306H134.341C135.341 29.9306 136.591 29.8049 137.34 29.0509C138.09 28.2969 138.215 27.0403 138.215 26.2863V14.9762C138.215 12.5885 137.465 10.7035 136.591 9.82386C135.591 8.69286 133.967 8.06452 132.092 8.06452ZM133.467 25.1553C133.467 25.5323 133.467 25.7836 133.092 26.0349C132.717 26.2863 132.342 26.2863 131.967 26.2863H125.22C124.595 26.2863 123.97 25.9093 123.72 25.6579C123.095 25.0296 123.095 23.8986 123.095 23.2703C123.095 21.7622 123.47 21.1339 123.595 20.8826C124.095 20.1286 125.095 20.1286 125.345 20.1286H133.342V25.1553H133.467ZM141.089 9.19553C140.589 9.94953 140.589 10.8292 140.589 11.5832V29.9306H145.337V13.4682C145.337 12.9655 145.337 12.4629 145.712 12.0859C145.962 11.8345 146.337 11.7089 146.712 11.7089H157.958V7.93886H143.588C142.713 8.06452 141.714 8.19019 141.089 9.19553ZM170.453 8.06452H162.831C161.956 8.06452 160.957 8.19019 160.082 8.81853C159.582 9.19553 158.833 10.0752 158.833 11.4575V36.968H163.581V29.9306H169.704C171.953 29.9306 175.327 29.8049 177.326 26.7889C178.825 24.5269 179.075 21.3852 179.075 18.4949C179.075 16.1072 178.95 12.7142 176.826 10.4522C174.827 8.19019 171.828 8.06452 170.453 8.06452ZM173.327 24.1499C172.828 25.0296 171.578 26.1606 169.204 26.1606H163.706V12.8399C163.706 12.5885 163.831 12.3372 164.081 12.0859C164.206 11.9602 164.581 11.8345 164.705 11.8345H169.454C171.578 11.8345 173.078 12.9655 173.577 14.3479C173.827 14.9762 174.202 16.1072 174.202 18.9976C174.202 22.1392 173.827 23.5216 173.327 24.1499ZM192.321 7.81319C189.697 7.81319 185.948 7.93886 183.574 10.0752C181.075 12.4629 180.825 16.6099 180.825 18.9976C180.825 21.2596 181.075 25.4066 183.574 27.7943C185.948 29.9306 189.822 30.1819 192.321 30.1819C194.82 30.1819 198.818 30.0563 201.067 27.7943C202.692 26.2863 203.816 23.5216 203.816 18.8719C203.816 16.6099 203.567 12.4629 201.067 10.0752C198.693 7.93886 194.945 7.81319 192.321 7.81319ZM198.943 19.1232C198.943 21.0082 198.943 23.1446 197.569 24.7783C196.069 26.4119 194.195 26.5376 192.446 26.5376C190.696 26.5376 188.572 26.2863 187.197 24.7783C185.823 23.1446 185.823 21.0082 185.823 19.1232C185.823 17.7409 185.823 14.8506 187.197 13.3425C188.572 11.7089 190.946 11.5832 192.446 11.5832C194.195 11.5832 196.319 11.7089 197.694 13.3425C199.068 14.9762 198.943 17.4896 198.943 19.1232ZM310.403 9.19553H303.156C303.156 7.93886 303.656 6.68219 304.28 6.17952C305.405 5.17418 307.154 5.17418 308.404 5.17418H317.651V1.40417H306.155C302.156 1.40417 300.407 3.41484 299.657 4.67151C298.657 6.43085 298.533 8.44153 298.533 9.82386V21.0082C298.533 22.8932 298.533 24.7783 299.657 26.5376C301.656 29.9306 305.655 29.9306 308.654 29.9306C311.778 29.9306 315.401 29.9306 317.526 26.6633C319.025 24.4013 319.025 21.0082 319.025 19.1232C319.025 16.8612 318.9 14.2222 317.651 12.2115C316.401 10.7035 314.277 9.19553 310.403 9.19553ZM312.652 25.0296C311.778 25.9093 310.028 26.2863 308.529 26.2863C306.53 26.2863 305.155 25.6579 304.28 24.7783C303.781 24.1499 303.156 23.0189 303.156 21.3852V12.8399H309.279C311.403 12.8399 312.527 13.8452 312.902 14.4735C313.527 15.3532 314.027 16.8612 314.027 19.6259C314.027 21.2596 313.902 23.7729 312.652 25.0296ZM334.769 7.93886H322.399V11.7089H333.145C333.895 11.7089 334.894 11.8345 335.519 12.7142C336.019 13.3425 336.144 14.0965 336.144 14.8505V16.3586H326.647C325.523 16.3586 324.023 16.4842 322.649 17.6152C321.024 19.1232 320.775 21.0082 320.775 23.0189C320.775 24.6526 320.899 27.4173 322.649 29.0509C323.898 30.1819 325.398 30.1819 326.647 30.1819H337.144C338.143 30.1819 339.393 30.0563 340.143 29.3023C340.892 28.5483 341.017 27.2916 341.017 26.5376V15.1019C341.017 12.7142 340.268 10.8292 339.393 9.94953C338.393 8.69286 336.644 7.93886 334.769 7.93886ZM336.144 25.1553C336.144 25.5323 336.144 25.7836 335.769 26.0349C335.394 26.2863 335.019 26.2863 334.645 26.2863H327.897C327.272 26.2863 326.647 25.9093 326.273 25.6579C325.648 25.0296 325.648 23.8986 325.648 23.2703C325.648 21.6366 326.023 21.1339 326.148 20.8826C326.647 20.1286 327.647 20.1286 327.897 20.1286H335.894V25.1553H336.144ZM358.886 16.7356H348.515V7.93886H343.766V29.8049H348.515V20.3799H358.886V29.8049H363.634V8.06452H358.886V16.7356ZM366.258 29.9306H371.131V7.93886H366.258V29.9306ZM377.754 20.1286C377.379 19.7516 377.004 18.9976 377.004 18.6206C377.004 17.8666 377.629 17.2382 378.004 16.8612L386.251 7.93886H380.503L373.506 15.7302C372.881 16.4842 372.006 17.4896 372.006 18.6206C372.006 19.7516 372.756 20.6312 373.256 21.1339L381.253 29.9306H387.001L377.754 20.1286Z" fill="#545456"/>
</svg>
