<svg width="189" height="46" viewBox="0 0 189 46" fill="none" xmlns="http://www.w3.org/2000/svg">
<path fill-rule="evenodd" clip-rule="evenodd" d="M94.7715 13.755L94.5035 18.635C94.4142 20.2915 94.2802 21.7242 94.1909 22.9777C94.0123 24.9924 93.789 29.8724 91.1988 29.8724H91.1095C90.8862 29.8724 90.5736 30.0515 90.5736 30.4097V33.5436C90.5736 33.9018 90.7969 34.1256 91.1095 34.1256H91.3328C93.2977 34.1256 95.0394 33.9018 96.5578 31.6185C97.0043 30.9021 97.4509 30.0963 97.7189 29.2009C98.0315 28.3054 98.2548 27.2757 98.4334 26.1565C98.612 25.0372 98.746 23.7836 98.8353 22.4405C98.9247 21.0974 99.0586 19.62 99.1479 18.053L99.2819 15.8145H105.534V33.5436C105.534 33.857 105.802 34.1256 106.115 34.0808H109.821C110.223 34.0808 110.402 33.8122 110.402 33.4988V13.173C110.402 12.3224 109.687 11.606 108.705 11.606H96.4238C95.486 11.606 94.9054 12.4567 94.8608 13.1282C94.8161 13.3073 94.7715 13.5312 94.7715 13.755ZM56.3655 34.1256H64.7612C68.9144 34.2599 72.3084 31.3946 72.4424 27.0519C72.4424 26.6937 72.4871 26.246 72.3531 25.7535C71.6386 22.2166 68.8698 19.799 65.2971 19.799H59.6255V15.7697H69.3163C69.6736 15.7697 69.8969 15.5011 69.8969 15.1429V12.2776C69.8969 11.8747 69.7629 11.5613 69.3163 11.5613H56.4548C55.1597 11.5613 54.7578 12.5462 54.7578 13.1282V32.4691C54.7578 33.4093 55.4277 34.1256 56.3655 34.1256ZM158.632 33.4541V25.8878H163.991C167.698 25.8878 171.137 22.8882 171.047 18.5902C171.047 17.5605 170.779 16.6203 170.422 15.7697C169.529 13.7998 167.921 12.4567 166.001 11.8747C165.242 11.6508 164.393 11.5613 163.545 11.5613H155.417C154.569 11.5613 153.809 12.1433 153.809 13.0835C153.809 13.2178 153.809 13.3521 153.809 13.4864V33.4988C153.809 33.8122 154.033 34.0361 154.345 34.0361H158.141C158.32 34.0361 158.543 33.9018 158.632 33.7674C158.632 33.7227 158.632 33.5884 158.632 33.4541ZM165.956 18.7693C165.956 20.3363 164.706 21.7242 163.009 21.7242H158.632V15.8145H162.786C164.706 15.7249 165.956 17.1576 165.956 18.7693ZM145.994 29.4247L147.245 33.5884C147.334 33.9913 147.557 34.0808 147.781 34.0808H151.844C152.202 34.0808 152.47 33.7674 152.38 33.3645L145.726 13.3073C145.414 12.3224 144.922 11.5613 143.806 11.5613H140.948C140.367 11.5165 139.876 11.7403 139.474 12.2328C139.296 12.5014 139.117 12.8596 138.983 13.3073L132.329 33.3197C132.195 33.7674 132.552 34.0361 132.865 34.0361H136.75C136.884 34.0361 137.152 34.0361 137.286 33.7227C137.331 33.6331 137.375 33.5436 137.375 33.4541L138.626 29.3799H145.994V29.4247ZM139.831 25.4401L141.037 21.366L142.243 16.7994H142.422L143.627 21.366L144.833 25.4401H139.831ZM126.345 22.1271V21.948C127.015 21.5451 127.595 20.9631 128.086 20.3363C128.533 19.6647 128.89 18.8589 129.114 17.9634L130.587 12.2328C130.632 11.9642 130.453 11.606 130.051 11.606H126.479C126.345 11.606 126.255 11.606 126.121 11.6956C125.987 11.7403 125.898 11.8747 125.853 12.0985L124.424 17.5157C124.246 18.1873 124.022 18.6798 123.755 19.0827C123.487 19.4856 123.174 19.7543 122.817 19.9334C122.459 20.1124 122.102 20.2467 121.79 20.2915C121.432 20.3363 121.075 20.3811 120.762 20.3811H118.217V12.1433C118.217 11.7851 117.904 11.606 117.681 11.606H113.93C113.617 11.606 113.349 11.8299 113.349 12.0985V33.5884C113.349 33.9018 113.617 34.0808 113.93 34.0808H117.636C117.949 34.0808 118.217 33.857 118.217 33.5884V24.0522H120.807C121.566 24.0522 122.192 24.097 122.683 24.2761C123.219 24.4104 123.621 24.679 123.978 25.082C124.335 25.4849 124.603 26.0221 124.826 26.7832L126.791 33.7674C126.881 34.0361 127.104 34.1704 127.283 34.1704H130.989C131.48 34.2152 131.614 33.7227 131.525 33.5436L129.56 26.0669C129.426 25.5744 129.292 25.1267 129.158 24.7686C129.024 24.3656 128.801 24.0075 128.578 23.6941C128.354 23.3807 128.042 23.1121 127.684 22.8434C127.327 22.53 126.881 22.3062 126.345 22.1271ZM89.4571 33.3645V30.4097C89.4571 30.1858 89.2785 29.8724 88.9212 29.8724H80.2129C79.677 29.8724 78.6499 29.5142 78.6499 28.1711V23.8732H87.8941C88.296 23.8732 88.43 23.5598 88.43 23.3359V20.3363C88.43 20.0229 88.2067 19.799 87.8048 19.799H78.6052V17.3814C78.6052 16.3517 79.4537 15.8145 80.1683 15.8145H88.8319C89.2338 15.8145 89.4125 15.5011 89.4125 15.2772V12.1433C89.4125 11.8299 89.1892 11.606 88.7873 11.606L79.7663 11.5613C76.3723 11.5613 73.6928 14.3818 73.6928 17.5605V28.2159C73.6928 31.4842 76.4616 34.1256 79.6324 34.1256H88.8319C89.1445 34.1256 89.3678 33.9018 89.3678 33.5884C89.4571 33.4988 89.4571 33.4541 89.4571 33.3645ZM182.569 15.8145V33.6331C182.569 33.9465 182.301 34.1256 181.989 34.1256H178.282C177.969 34.1256 177.702 33.9018 177.702 33.6331V15.8145H171.851C171.539 15.8145 171.36 15.5458 171.36 15.2324V12.188C171.36 11.8747 171.583 11.606 171.851 11.606H188.464C188.777 11.606 188.955 11.8747 188.955 12.188V15.2324C188.955 15.5458 188.732 15.8145 188.464 15.8145H182.569ZM67.396 26.7832C67.4407 28.5741 66.0563 29.8276 64.27 29.8276H59.6255V23.8732H64.3146C65.967 23.8732 67.3514 25.0372 67.396 26.7832Z" fill="#0068A6"/>
<path d="M22.9609 37.6626C31.0013 37.6626 37.5194 31.1281 37.5194 23.0674C37.5194 15.0067 31.0013 8.47217 22.9609 8.47217C14.9204 8.47217 8.40234 15.0067 8.40234 23.0674C8.40234 31.1281 14.9204 37.6626 22.9609 37.6626Z" fill="white"/>
<path d="M36.4028 41.4679H27.3819C27.1139 41.4679 26.8906 41.2441 26.8906 40.9754V38.7369L29.7041 35.9164C29.8827 35.7373 29.8827 35.4239 29.7041 35.2448L26.8906 31.7527V27.41C26.8906 27.1413 27.1139 26.9175 27.3819 26.9175H36.4028C36.6707 26.9175 36.894 27.1413 36.894 27.41V41.0202C36.8494 41.2888 36.6707 41.4679 36.4028 41.4679Z" fill="url(#paint0_linear_374_591)"/>
<path d="M18.5844 19.0825H9.5635C9.29556 19.0825 9.07227 18.8586 9.07227 18.59V4.97978C9.07227 4.71116 9.29556 4.4873 9.5635 4.4873H18.5844C18.8524 4.4873 19.0757 4.71116 19.0757 4.97978V13.531L16.2622 10.7104L19.0757 14.2473V18.59C19.0757 18.8586 18.8524 19.0825 18.5844 19.0825Z" fill="url(#paint1_linear_374_591)"/>
<path d="M4.51758 36.4536V27.41C4.51758 27.1413 4.74087 26.9175 5.00882 26.9175H7.24172L10.0552 29.738C10.2338 29.9171 10.5464 29.9171 10.7251 29.738L14.253 26.9175H18.5849C18.8528 26.9175 19.0761 27.1413 19.0761 27.41V36.4536C19.0761 36.7222 18.8528 36.9461 18.5849 36.9461H5.00882C4.74087 36.9013 4.51758 36.7222 4.51758 36.4536Z" fill="url(#paint2_linear_374_591)"/>
<path d="M26.8906 18.5903V9.54668C26.8906 9.27805 27.1139 9.0542 27.3819 9.0542H40.9579C41.2259 9.0542 41.4491 9.27805 41.4491 9.54668V18.5903C41.4491 18.8589 41.2259 19.0828 40.9579 19.0828H38.725L35.9115 16.2623C35.7329 16.0832 35.4203 16.0832 35.2417 16.2623L31.7137 19.0828H27.3819C27.1139 19.0828 26.8906 18.8589 26.8906 18.5903Z" fill="url(#paint3_linear_374_591)"/>
<path d="M19.4341 45.5866L13.048 39.1845C12.8694 39.0054 12.8694 38.692 13.048 38.5129L14.6111 36.9459H18.5856C18.8536 36.9459 19.0769 36.7221 19.0769 36.4535L19.5681 31.9764L22.6495 28.8872C22.8282 28.7082 23.1408 28.7082 23.3194 28.8872L29.7055 35.2894C29.8841 35.4685 29.8841 35.7819 29.7055 35.961L20.104 45.5866C19.9254 45.7657 19.6128 45.7657 19.4341 45.5866Z" fill="url(#paint4_linear_374_591)"/>
<path d="M22.649 17.1125L16.2629 10.7103C16.0842 10.5313 16.0842 10.2179 16.2629 10.0388L25.8644 0.41312C26.043 0.234038 26.3556 0.234038 26.5342 0.41312L32.9204 6.81531C33.099 6.99439 33.099 7.30778 32.9204 7.48686L31.3127 9.05383H27.3381C27.0701 9.05383 26.8469 9.27769 26.8469 9.54631L26.3556 14.0234L23.3189 17.1125C23.1402 17.2916 22.8276 17.2916 22.649 17.1125Z" fill="url(#paint5_linear_374_591)"/>
<path d="M0.454287 19.4408L6.84039 13.0386C7.01902 12.8595 7.33163 12.8595 7.51026 13.0386L9.0733 14.6056V18.5902C9.0733 18.8588 9.29659 19.0826 9.56454 19.0826L14.0303 19.5751L17.1117 22.6643C17.2904 22.8434 17.2904 23.1567 17.1117 23.3358L10.7256 29.738C10.7256 29.8723 10.2791 29.9619 10.0558 29.738L0.454287 20.1124C0.275654 19.9333 0.275654 19.6199 0.454287 19.4408Z" fill="url(#paint6_linear_374_591)"/>
<path d="M28.8566 22.6644L35.2427 16.2622C35.4214 16.0832 35.734 16.0832 35.9126 16.2622L45.5141 25.8879C45.6927 26.067 45.6927 26.3804 45.5141 26.5595L39.128 32.9617C38.9494 33.1407 38.6367 33.1407 38.4581 32.9617L36.8951 31.3947V27.4101C36.8951 27.1415 36.6718 26.9176 36.4038 26.9176L31.938 26.4252L28.8566 23.336C28.678 23.1569 28.678 22.8435 28.8566 22.6644Z" fill="url(#paint7_linear_374_591)"/>
<path fill-rule="evenodd" clip-rule="evenodd" d="M40.9576 19.0827L35.9112 16.2622L38.7247 19.0827H40.9576ZM38.4567 32.9616L36.849 27.41V31.3946L38.4567 32.9616ZM26.8903 41.0203L29.7037 35.9612L26.8903 38.7817V41.0203ZM13.0463 38.5131L18.5839 36.9461H14.6093L13.0463 38.5131ZM5.00781 26.9175L10.0542 29.7381L7.24072 26.9175H5.00781ZM7.50867 13.0387L9.0717 18.5902V14.6056L7.50867 13.0387ZM32.9191 7.48713L27.3815 9.0541H31.3561L32.9191 7.48713ZM19.0751 4.97998L16.2616 10.0391L19.0751 7.21851V4.97998Z" fill="#0068A6"/>
<defs>
<linearGradient id="paint0_linear_374_591" x1="27.7901" y1="30.0204" x2="37.694" y2="34.7718" gradientUnits="userSpaceOnUse">
<stop stop-color="#9EDBF4"/>
<stop offset="0.5" stop-color="#009EE0"/>
<stop offset="1" stop-color="#005793"/>
</linearGradient>
<linearGradient id="paint1_linear_374_591" x1="18.2067" y1="15.8571" x2="8.28717" y2="11.2729" gradientUnits="userSpaceOnUse">
<stop stop-color="#9EDBF4"/>
<stop offset="0.5" stop-color="#009EE0"/>
<stop offset="1" stop-color="#005793"/>
</linearGradient>
<linearGradient id="paint2_linear_374_591" x1="16.0659" y1="27.8698" x2="11.1173" y2="37.7611" gradientUnits="userSpaceOnUse">
<stop stop-color="#9EDBF4"/>
<stop offset="0.5" stop-color="#009EE0"/>
<stop offset="1" stop-color="#005793"/>
</linearGradient>
<linearGradient id="paint3_linear_374_591" x1="29.8812" y1="18.1142" x2="34.8298" y2="8.22296" gradientUnits="userSpaceOnUse">
<stop stop-color="#9EDBF4"/>
<stop offset="0.5" stop-color="#009EE0"/>
<stop offset="1" stop-color="#005793"/>
</linearGradient>
<linearGradient id="paint4_linear_374_591" x1="22.9661" y1="29.0288" x2="19.7718" y2="45.4204" gradientUnits="userSpaceOnUse">
<stop stop-color="#9EDBF4"/>
<stop offset="0.5" stop-color="#009EE0"/>
<stop offset="1" stop-color="#005793"/>
</linearGradient>
<linearGradient id="paint5_linear_374_591" x1="22.8437" y1="16.9232" x2="26.3241" y2="0.590211" gradientUnits="userSpaceOnUse">
<stop stop-color="#9EDBF4"/>
<stop offset="0.5" stop-color="#009EE0"/>
<stop offset="1" stop-color="#005793"/>
</linearGradient>
<linearGradient id="paint6_linear_374_591" x1="16.9537" y1="22.9756" x2="0.59725" y2="19.8042" gradientUnits="userSpaceOnUse">
<stop stop-color="#9EDBF4"/>
<stop offset="0.5" stop-color="#009EE0"/>
<stop offset="1" stop-color="#005793"/>
</linearGradient>
<linearGradient id="paint7_linear_374_591" x1="28.9968" y1="22.9998" x2="45.3532" y2="26.1712" gradientUnits="userSpaceOnUse">
<stop stop-color="#9EDBF4"/>
<stop offset="0.5" stop-color="#009EE0"/>
<stop offset="1" stop-color="#005793"/>
</linearGradient>
</defs>
</svg>
