<svg width="204" height="221" viewBox="0 0 204 221" fill="none" xmlns="http://www.w3.org/2000/svg">
<g clip-path="url(#clip0_391_646)">
<path d="M199.75 51.0822C193.109 51.0822 186.469 51.0822 179.828 51.0822C179.297 51.0822 178.766 51.0822 177.969 51.0822C178.234 50.2882 178.5 50.0235 178.766 49.4941C182.484 42.8774 185.672 35.9959 186.469 28.3205C187.266 19.3217 184.609 11.6462 176.641 6.61749C166.016 0.000726121 154.328 -1.85197 142.375 1.85342C133.875 4.50013 126.969 9.79354 120.859 16.4103C113.156 24.6151 107.578 34.1432 103.062 44.2007C102.797 44.7301 102.531 45.2594 102.266 45.7888C102 45.2594 101.734 44.7301 101.469 44.2007C99.0781 39.7013 96.9531 35.2019 94.2969 30.9672C89.25 22.4977 83.4062 15.087 75.7031 8.99953C63.75 0.265397 51 -2.38131 36.9219 2.38276C34.7969 3.17677 32.4062 3.97079 30.5469 5.02947C20.4531 10.3229 15.9375 19.3217 17.7969 30.4379C19.125 37.3193 21.7812 43.6714 25.2344 49.7588C25.5 50.0235 25.7656 50.5528 26.0312 51.0822H24.4375C17.7969 51.0822 11.1562 51.0822 4.51562 51.0822C1.32812 51.0822 0 52.1409 0 55.3169C0 70.6678 0 85.754 0 101.105C0 104.281 1.0625 105.34 4.51562 105.34C8.76562 105.34 13.2812 105.34 17.7969 105.34C17.7969 105.869 17.7969 106.134 17.7969 106.663C17.7969 143.188 17.7969 179.712 17.7969 216.237C17.7969 219.677 18.8594 220.736 22.3125 220.736C43.2969 220.736 64.2812 220.736 85 220.736C117.406 220.736 149.547 220.736 181.953 220.736C185.141 220.736 186.469 219.413 186.469 216.237C186.469 204.326 186.469 192.681 186.469 180.771V105.34C187 105.34 187.531 105.34 188.063 105.34C192.047 105.34 196.031 105.34 200.016 105.34C202.672 105.34 204 104.016 204 101.37C204 86.0187 204 70.4031 204 55.0522C204 52.1409 202.672 51.0822 199.75 51.0822ZM110.234 44.7301C114.484 35.7313 119.797 27.2618 126.703 20.1157C131.75 14.8223 137.594 10.5876 144.766 8.20552C154.062 5.29414 163.094 6.61749 171.328 11.3816C178.5 15.3516 180.891 21.9684 179.031 30.7025C177.438 37.8486 173.984 44.2007 170 50.0235C169.734 50.2882 169.203 50.5528 168.938 50.5528C168.672 50.5528 168.406 50.5528 167.875 50.5528C148.75 50.5528 129.359 50.5528 110.234 50.5528C109.438 50.5528 108.641 50.5528 107.578 50.5528C108.641 48.7001 109.438 46.8474 110.234 44.7301ZM116.344 57.9636V98.4582H87.6562V57.9636H116.344ZM25.2344 32.2906C24.4375 29.3792 24.1719 26.4678 24.4375 23.2917C24.9688 18.7923 27.3594 15.3516 30.8125 12.7049C35.3281 9.52887 40.6406 7.67618 45.9531 7.14683C57.375 5.82348 66.4062 10.3229 74.375 17.469C81.8125 24.3504 87.3906 32.5552 91.9062 41.554C93.5 44.4654 94.8281 47.6414 96.4219 51.0822C95.3594 51.0822 94.8281 51.0822 94.2969 51.0822C74.6406 51.0822 54.9844 51.0822 35.3281 51.0822C34.2656 51.0822 33.7344 50.8175 33.4688 50.0235C30.0156 44.2007 26.8281 38.6426 25.2344 32.2906ZM7.17188 98.4582V57.9636H80.4844V98.4582H7.17188ZM177.969 214.119C160.172 214.119 142.109 214.119 124.312 214.119C124.047 214.119 124.047 214.119 123.781 214.119C122.984 214.119 121.922 214.119 121.125 214.119C119.531 214.119 117.672 214.119 116.078 214.119H87.6562V213.855C85.2656 213.855 82.875 213.855 80.4844 213.855H24.7031V105.34H80.4844H87.6562H116.344H123.516H179.297V106.928C179.297 133.924 179.297 160.921 179.297 187.652C179.297 195.857 179.297 204.062 179.297 212.531C179.297 213.855 179.031 214.119 177.969 214.119ZM196.828 98.4582H123.516V57.9636H196.828V98.4582Z" fill="white"/>
<path d="M129.744 193.095C129.744 194.189 129.686 195.126 129.568 195.907C129.451 196.65 129.275 197.255 129.041 197.724C128.846 198.154 128.611 198.466 128.338 198.661C128.064 198.857 127.752 198.954 127.4 198.954H85.5645C85.252 198.954 84.959 198.857 84.6855 198.661C84.4121 198.466 84.1582 198.154 83.9238 197.724C83.7285 197.255 83.5723 196.65 83.4551 195.907C83.3379 195.126 83.2793 194.189 83.2793 193.095C83.2793 191.962 83.3184 191.025 83.3965 190.282C83.5137 189.501 83.6699 188.876 83.8652 188.407C84.0996 187.939 84.3535 187.607 84.627 187.411C84.9004 187.177 85.2129 187.06 85.5645 187.06H99.6855V137.724L87.498 144.462C86.5996 144.892 85.8574 145.165 85.2715 145.282C84.7246 145.361 84.2754 145.243 83.9238 144.931C83.6113 144.579 83.3965 143.993 83.2793 143.173C83.1621 142.353 83.1035 141.2 83.1035 139.716C83.1035 138.779 83.123 138.017 83.1621 137.431C83.2012 136.806 83.2988 136.279 83.4551 135.849C83.6113 135.419 83.8262 135.068 84.0996 134.794C84.373 134.521 84.7441 134.228 85.2129 133.915L101.502 123.368C101.697 123.212 101.932 123.095 102.205 123.017C102.518 122.9 102.908 122.822 103.377 122.782C103.846 122.704 104.451 122.665 105.193 122.665C105.975 122.626 106.971 122.607 108.182 122.607C109.666 122.607 110.857 122.646 111.756 122.724C112.693 122.763 113.396 122.861 113.865 123.017C114.334 123.134 114.646 123.31 114.803 123.544C114.959 123.779 115.037 124.072 115.037 124.423V187.06H127.4C127.752 187.06 128.064 187.177 128.338 187.411C128.65 187.607 128.904 187.939 129.1 188.407C129.334 188.876 129.49 189.501 129.568 190.282C129.686 191.025 129.744 191.962 129.744 193.095Z" fill="white"/>
</g>
<defs>
<clipPath id="clip0_391_646">
<rect width="204" height="221" fill="white"/>
</clipPath>
</defs>
</svg>
