<svg width="169" height="184" viewBox="0 0 169 184" fill="none" xmlns="http://www.w3.org/2000/svg">
<g clip-path="url(#clip0_374_968)">
<path d="M165.479 42.5298C159.978 42.5298 154.477 42.5298 148.975 42.5298C148.535 42.5298 148.095 42.5298 147.435 42.5298C147.655 41.8688 147.875 41.6484 148.095 41.2077C151.176 35.6987 153.816 29.9694 154.477 23.5789C155.137 16.0867 152.936 9.69631 146.335 5.50948C137.533 0.000500711 127.85 -1.54201 117.948 1.54302C110.906 3.74661 105.185 8.15379 100.124 13.6628C93.7422 20.4939 89.1211 28.4269 85.3802 36.8005C85.1601 37.2412 84.9401 37.6819 84.72 38.1227C84.5 37.6819 84.2799 37.2412 84.0599 36.8005C82.0794 33.0544 80.319 29.3083 78.1185 25.7825C73.9375 18.731 69.0964 12.561 62.7148 7.49272C52.8125 0.22086 42.25 -1.98273 30.5872 1.98373C28.8268 2.64481 26.8464 3.30589 25.306 4.18733C16.944 8.59451 13.2031 16.0867 14.7435 25.3418C15.8437 31.0712 18.0443 36.3598 20.9049 41.428C21.125 41.6484 21.3451 42.0891 21.5651 42.5298H20.2448C14.7435 42.5298 9.24219 42.5298 3.74089 42.5298C1.10026 42.5298 0 43.4113 0 46.0556C0 58.8364 0 71.3969 0 84.1778C0 86.8221 0.880208 87.7035 3.74089 87.7035C7.26172 87.7035 11.0026 87.7035 14.7435 87.7035C14.7435 88.1442 14.7435 88.3646 14.7435 88.8053C14.7435 119.215 14.7435 149.624 14.7435 180.034C14.7435 182.899 15.6237 183.78 18.4844 183.78C35.8685 183.78 53.2526 183.78 70.4167 183.78C97.263 183.78 123.889 183.78 150.736 183.78C153.376 183.78 154.477 182.678 154.477 180.034C154.477 170.118 154.477 160.422 154.477 150.506V87.7035C154.917 87.7035 155.357 87.7035 155.797 87.7035C159.098 87.7035 162.398 87.7035 165.699 87.7035C167.9 87.7035 169 86.6017 169 84.3981C169 71.6173 169 58.6161 169 45.8352C169 43.4113 167.9 42.5298 165.479 42.5298ZM91.3216 37.2412C94.8424 29.749 99.2435 22.6975 104.965 16.7478C109.146 12.3406 113.987 8.81487 119.928 6.83164C127.63 4.40769 135.112 5.50948 141.934 9.47595C147.875 12.7813 149.855 18.2903 148.315 25.5622C146.995 31.5119 144.134 36.8005 140.833 41.6484C140.613 41.8688 140.173 42.0891 139.953 42.0891C139.733 42.0891 139.513 42.0891 139.073 42.0891C123.229 42.0891 107.165 42.0891 91.3216 42.0891C90.6615 42.0891 90.0013 42.0891 89.1211 42.0891C90.0013 40.5466 90.6615 39.0041 91.3216 37.2412ZM96.3828 48.2592V81.9742H72.6172V48.2592H96.3828ZM20.9049 26.8843C20.2448 24.4604 20.0247 22.0364 20.2448 19.3921C20.6849 15.646 22.6654 12.7813 25.526 10.5777C29.2669 7.93344 33.668 6.39092 38.069 5.9502C47.5312 4.84841 55.013 8.59451 61.6146 14.5442C67.776 20.2736 72.3971 27.1047 76.138 34.5969C77.4583 37.0209 78.5586 39.6652 79.8789 42.5298C78.9987 42.5298 78.5586 42.5298 78.1185 42.5298C61.8346 42.5298 45.5508 42.5298 29.2669 42.5298C28.3867 42.5298 27.9466 42.3095 27.7266 41.6484C24.8659 36.8005 22.2253 32.173 20.9049 26.8843ZM5.94141 81.9742V48.2592H66.6758V81.9742H5.94141ZM147.435 178.271C132.691 178.271 117.728 178.271 102.984 178.271C102.764 178.271 102.764 178.271 102.544 178.271C101.884 178.271 101.004 178.271 100.344 178.271C99.0234 178.271 97.4831 178.271 96.1628 178.271H72.6172V178.051C70.6367 178.051 68.6562 178.051 66.6758 178.051H20.4648V87.7035H66.6758H72.6172H96.3828H102.324H148.535V89.0257C148.535 111.502 148.535 133.979 148.535 156.235C148.535 163.066 148.535 169.898 148.535 176.949C148.535 178.051 148.315 178.271 147.435 178.271ZM163.059 81.9742H102.324V48.2592H163.059V81.9742Z" fill="#F9BEB4"/>
<path d="M106.787 130.126C106.787 132.595 106.662 135.157 106.412 137.814C106.162 140.439 105.678 143.017 104.959 145.548C104.271 148.079 103.303 150.486 102.053 152.767C100.834 155.048 99.2402 157.048 97.2715 158.767C95.334 160.454 92.959 161.798 90.1465 162.798C87.3652 163.798 84.0684 164.298 80.2559 164.298C78.9121 164.298 77.5684 164.204 76.2246 164.017C74.9121 163.829 73.709 163.595 72.6152 163.314C71.5215 163.032 70.584 162.736 69.8027 162.423C69.0527 162.111 68.5059 161.798 68.1621 161.486C67.8184 161.142 67.5684 160.657 67.4121 160.032C67.2559 159.407 67.1777 158.532 67.1777 157.407C67.1777 156.376 67.1934 155.548 67.2246 154.923C67.2871 154.298 67.3809 153.814 67.5059 153.47C67.6621 153.126 67.834 152.907 68.0215 152.814C68.2402 152.689 68.4902 152.626 68.7715 152.626C69.1465 152.626 69.6777 152.736 70.3652 152.954C71.0527 153.173 71.8809 153.423 72.8496 153.704C73.8496 153.986 74.9746 154.236 76.2246 154.454C77.4746 154.673 78.8652 154.782 80.3965 154.782C83.0215 154.782 85.2402 154.314 87.0527 153.376C88.8652 152.439 90.334 151.173 91.459 149.579C92.584 147.986 93.4121 146.142 93.9434 144.048C94.4746 141.954 94.7715 139.751 94.834 137.439C93.3965 138.345 91.6621 139.142 89.6309 139.829C87.5996 140.486 85.2715 140.814 82.6465 140.814C79.4277 140.814 76.6934 140.392 74.4434 139.548C72.1934 138.704 70.3652 137.486 68.959 135.892C67.5527 134.298 66.5215 132.361 65.8652 130.079C65.2402 127.798 64.9277 125.22 64.9277 122.345C64.9277 119.314 65.3809 116.532 66.2871 114.001C67.1934 111.439 68.5371 109.236 70.3184 107.392C72.0996 105.517 74.3184 104.064 76.9746 103.032C79.6309 102.001 82.709 101.486 86.209 101.486C89.0215 101.486 91.4746 101.814 93.5684 102.47C95.6934 103.126 97.5059 104.064 99.0059 105.282C100.537 106.501 101.803 107.986 102.803 109.736C103.834 111.454 104.631 113.376 105.193 115.501C105.787 117.626 106.193 119.923 106.412 122.392C106.662 124.861 106.787 127.439 106.787 130.126ZM94.5527 128.439C94.5527 125.095 94.3652 122.298 93.9902 120.048C93.6152 117.798 93.0527 116.001 92.3027 114.657C91.5527 113.314 90.6152 112.361 89.4902 111.798C88.3652 111.236 87.0527 110.954 85.5527 110.954C84.084 110.954 82.8184 111.22 81.7559 111.751C80.6934 112.251 79.8027 112.97 79.084 113.907C78.3965 114.845 77.8809 115.954 77.5371 117.236C77.1934 118.517 77.0215 119.923 77.0215 121.454C77.0215 123.111 77.1621 124.579 77.4434 125.861C77.7559 127.111 78.2246 128.157 78.8496 129.001C79.5059 129.814 80.3496 130.423 81.3809 130.829C82.4121 131.236 83.6621 131.439 85.1309 131.439C86.9434 131.439 88.6465 131.173 90.2402 130.642C91.8652 130.079 93.3027 129.345 94.5527 128.439Z" fill="white"/>
</g>
<defs>
<clipPath id="clip0_374_968">
<rect width="169" height="184" fill="white"/>
</clipPath>
</defs>
</svg>
