<svg width="169" height="184" viewBox="0 0 169 184" fill="none" xmlns="http://www.w3.org/2000/svg">
<g clip-path="url(#clip0_374_976)">
<path d="M165.479 42.5298C159.978 42.5298 154.477 42.5298 148.975 42.5298C148.535 42.5298 148.095 42.5298 147.435 42.5298C147.655 41.8688 147.875 41.6484 148.095 41.2077C151.176 35.6987 153.816 29.9694 154.477 23.5789C155.137 16.0867 152.936 9.69631 146.335 5.50948C137.533 0.000500711 127.85 -1.54201 117.948 1.54302C110.906 3.74661 105.185 8.15379 100.124 13.6628C93.7422 20.4939 89.1211 28.4269 85.3802 36.8005C85.1601 37.2412 84.9401 37.6819 84.72 38.1227C84.5 37.6819 84.2799 37.2412 84.0599 36.8005C82.0794 33.0544 80.319 29.3083 78.1185 25.7825C73.9375 18.731 69.0964 12.561 62.7148 7.49272C52.8125 0.22086 42.25 -1.98273 30.5872 1.98373C28.8268 2.64481 26.8464 3.30589 25.306 4.18733C16.944 8.59451 13.2031 16.0867 14.7435 25.3418C15.8437 31.0712 18.0443 36.3598 20.9049 41.428C21.125 41.6484 21.3451 42.0891 21.5651 42.5298H20.2448C14.7435 42.5298 9.24219 42.5298 3.74089 42.5298C1.10026 42.5298 0 43.4113 0 46.0556C0 58.8364 0 71.3969 0 84.1778C0 86.8221 0.880208 87.7035 3.74089 87.7035C7.26172 87.7035 11.0026 87.7035 14.7435 87.7035C14.7435 88.1442 14.7435 88.3646 14.7435 88.8053C14.7435 119.215 14.7435 149.624 14.7435 180.034C14.7435 182.899 15.6237 183.78 18.4844 183.78C35.8685 183.78 53.2526 183.78 70.4167 183.78C97.263 183.78 123.889 183.78 150.736 183.78C153.376 183.78 154.477 182.678 154.477 180.034C154.477 170.118 154.477 160.422 154.477 150.506V87.7035C154.917 87.7035 155.357 87.7035 155.797 87.7035C159.098 87.7035 162.398 87.7035 165.699 87.7035C167.9 87.7035 169 86.6017 169 84.3981C169 71.6173 169 58.6161 169 45.8352C169 43.4113 167.9 42.5298 165.479 42.5298ZM91.3216 37.2412C94.8424 29.749 99.2435 22.6975 104.965 16.7478C109.146 12.3406 113.987 8.81487 119.928 6.83164C127.63 4.40769 135.112 5.50948 141.934 9.47595C147.875 12.7813 149.855 18.2903 148.315 25.5622C146.995 31.5119 144.134 36.8005 140.833 41.6484C140.613 41.8688 140.173 42.0891 139.953 42.0891C139.733 42.0891 139.513 42.0891 139.073 42.0891C123.229 42.0891 107.165 42.0891 91.3216 42.0891C90.6615 42.0891 90.0013 42.0891 89.1211 42.0891C90.0013 40.5466 90.6615 39.0041 91.3216 37.2412ZM96.3828 48.2592V81.9742H72.6172V48.2592H96.3828ZM20.9049 26.8843C20.2448 24.4604 20.0247 22.0364 20.2448 19.3921C20.6849 15.646 22.6654 12.7813 25.526 10.5777C29.2669 7.93344 33.668 6.39092 38.069 5.9502C47.5312 4.84841 55.013 8.59451 61.6146 14.5442C67.776 20.2736 72.3971 27.1047 76.138 34.5969C77.4583 37.0209 78.5586 39.6652 79.8789 42.5298C78.9987 42.5298 78.5586 42.5298 78.1185 42.5298C61.8346 42.5298 45.5508 42.5298 29.2669 42.5298C28.3867 42.5298 27.9466 42.3095 27.7266 41.6484C24.8659 36.8005 22.2253 32.173 20.9049 26.8843ZM5.94141 81.9742V48.2592H66.6758V81.9742H5.94141ZM147.435 178.271C132.691 178.271 117.728 178.271 102.984 178.271C102.764 178.271 102.764 178.271 102.544 178.271C101.884 178.271 101.004 178.271 100.344 178.271C99.0234 178.271 97.4831 178.271 96.1628 178.271H72.6172V178.051C70.6367 178.051 68.6562 178.051 66.6758 178.051H20.4648V87.7035H66.6758H72.6172H96.3828H102.324H148.535V89.0257C148.535 111.502 148.535 133.979 148.535 156.235C148.535 163.066 148.535 169.898 148.535 176.949C148.535 178.051 148.315 178.271 147.435 178.271ZM163.059 81.9742H102.324V48.2592H163.059V81.9742Z" fill="#F9BEB4"/>
<path d="M80.875 145.454C80.875 148.486 80.2969 151.173 79.1406 153.517C77.9844 155.861 76.375 157.829 74.3125 159.423C72.25 161.017 69.7812 162.236 66.9062 163.079C64.0312 163.892 60.8906 164.298 57.4844 164.298C55.4219 164.298 53.4844 164.142 51.6719 163.829C49.8594 163.548 48.25 163.189 46.8438 162.751C45.4688 162.314 44.3281 161.861 43.4219 161.392C42.5156 160.923 41.9219 160.564 41.6406 160.314C41.3594 160.064 41.1406 159.782 40.9844 159.47C40.8594 159.157 40.7344 158.798 40.6094 158.392C40.5156 157.954 40.4375 157.423 40.375 156.798C40.3438 156.142 40.3281 155.361 40.3281 154.454C40.3281 152.954 40.4531 151.923 40.7031 151.361C40.9531 150.767 41.3281 150.47 41.8281 150.47C42.1406 150.47 42.6719 150.689 43.4219 151.126C44.2031 151.532 45.1875 151.986 46.375 152.486C47.5625 152.954 48.9531 153.407 50.5469 153.845C52.1406 154.251 53.9531 154.454 55.9844 154.454C57.7031 154.454 59.2188 154.251 60.5312 153.845C61.8438 153.439 62.9531 152.876 63.8594 152.157C64.7969 151.407 65.4844 150.517 65.9219 149.486C66.3906 148.423 66.625 147.251 66.625 145.97C66.625 144.564 66.3438 143.298 65.7812 142.173C65.25 141.048 64.4375 140.095 63.3438 139.314C62.2812 138.501 60.9219 137.876 59.2656 137.439C57.6406 137.001 55.7188 136.782 53.5 136.782H48.25C47.8438 136.782 47.5 136.736 47.2188 136.642C46.9375 136.517 46.7031 136.282 46.5156 135.939C46.3281 135.595 46.1875 135.126 46.0938 134.532C46.0312 133.907 46 133.111 46 132.142C46 131.236 46.0312 130.501 46.0938 129.939C46.1875 129.345 46.3125 128.892 46.4688 128.579C46.6562 128.267 46.875 128.048 47.125 127.923C47.4062 127.798 47.7344 127.736 48.1094 127.736H53.4062C55.2188 127.736 56.8281 127.532 58.2344 127.126C59.6406 126.689 60.8125 126.079 61.75 125.298C62.7188 124.517 63.4531 123.579 63.9531 122.486C64.4531 121.361 64.7031 120.126 64.7031 118.782C64.7031 117.751 64.5312 116.782 64.1875 115.876C63.8438 114.939 63.3281 114.142 62.6406 113.486C61.9844 112.798 61.125 112.267 60.0625 111.892C59 111.486 57.75 111.282 56.3125 111.282C54.6875 111.282 53.1562 111.532 51.7188 112.032C50.2812 112.501 48.9844 113.032 47.8281 113.626C46.7031 114.189 45.7344 114.72 44.9219 115.22C44.1406 115.72 43.5625 115.97 43.1875 115.97C42.9375 115.97 42.7188 115.923 42.5312 115.829C42.3438 115.704 42.1875 115.486 42.0625 115.173C41.9375 114.861 41.8438 114.407 41.7812 113.814C41.7188 113.22 41.6875 112.454 41.6875 111.517C41.6875 110.736 41.7031 110.095 41.7344 109.595C41.7656 109.064 41.8281 108.626 41.9219 108.282C42.0156 107.939 42.125 107.642 42.25 107.392C42.4062 107.142 42.6406 106.876 42.9531 106.595C43.2656 106.282 43.9062 105.829 44.875 105.236C45.8438 104.642 47.0625 104.064 48.5312 103.501C50 102.939 51.6875 102.47 53.5938 102.095C55.5312 101.689 57.625 101.486 59.875 101.486C62.8125 101.486 65.4062 101.829 67.6562 102.517C69.9375 103.204 71.8438 104.204 73.375 105.517C74.9375 106.798 76.1094 108.392 76.8906 110.298C77.7031 112.173 78.1094 114.298 78.1094 116.673C78.1094 118.517 77.875 120.236 77.4062 121.829C76.9375 123.423 76.25 124.845 75.3438 126.095C74.4375 127.345 73.2969 128.407 71.9219 129.282C70.5781 130.157 69.0156 130.814 67.2344 131.251V131.392C69.3594 131.642 71.2656 132.189 72.9531 133.032C74.6406 133.845 76.0625 134.876 77.2188 136.126C78.4062 137.376 79.3125 138.798 79.9375 140.392C80.5625 141.954 80.875 143.642 80.875 145.454ZM131.031 132.657C131.031 137.501 130.641 141.876 129.859 145.782C129.078 149.689 127.797 153.017 126.016 155.767C124.266 158.517 121.969 160.626 119.125 162.095C116.312 163.564 112.859 164.298 108.766 164.298C104.609 164.298 101.172 163.595 98.4531 162.189C95.7344 160.751 93.5781 158.704 91.9844 156.048C90.3906 153.361 89.2656 150.095 88.6094 146.251C87.9844 142.376 87.6719 138.001 87.6719 133.126C87.6719 128.314 88.0625 123.954 88.8438 120.048C89.6562 116.111 90.9375 112.767 92.6875 110.017C94.4688 107.267 96.7656 105.157 99.5781 103.689C102.422 102.22 105.875 101.486 109.938 101.486C114.094 101.486 117.531 102.204 120.25 103.642C123 105.048 125.172 107.095 126.766 109.782C128.359 112.439 129.469 115.704 130.094 119.579C130.719 123.423 131.031 127.782 131.031 132.657ZM118.609 133.267C118.609 130.392 118.531 127.861 118.375 125.673C118.219 123.454 117.969 121.532 117.625 119.907C117.312 118.282 116.906 116.907 116.406 115.782C115.938 114.657 115.359 113.767 114.672 113.111C113.984 112.423 113.203 111.939 112.328 111.657C111.453 111.376 110.484 111.236 109.422 111.236C107.578 111.236 106.047 111.689 104.828 112.595C103.641 113.47 102.688 114.798 101.969 116.579C101.281 118.361 100.797 120.579 100.516 123.236C100.234 125.892 100.094 128.986 100.094 132.517C100.094 136.829 100.266 140.407 100.609 143.251C100.953 146.064 101.484 148.314 102.203 150.001C102.953 151.657 103.906 152.829 105.062 153.517C106.219 154.173 107.609 154.501 109.234 154.501C110.453 154.501 111.531 154.314 112.469 153.939C113.406 153.532 114.219 152.939 114.906 152.157C115.625 151.376 116.219 150.392 116.688 149.204C117.156 148.017 117.531 146.642 117.812 145.079C118.125 143.517 118.328 141.751 118.422 139.782C118.547 137.814 118.609 135.642 118.609 133.267Z" fill="white"/>
</g>
<defs>
<clipPath id="clip0_374_976">
<rect width="169" height="184" fill="white"/>
</clipPath>
</defs>
</svg>
