<svg width="169" height="184" viewBox="0 0 169 184" fill="none" xmlns="http://www.w3.org/2000/svg">
<g clip-path="url(#clip0_374_992)">
<path d="M165.479 42.5298C159.978 42.5298 154.477 42.5298 148.975 42.5298C148.535 42.5298 148.095 42.5298 147.435 42.5298C147.655 41.8688 147.875 41.6484 148.095 41.2077C151.176 35.6987 153.816 29.9694 154.477 23.5789C155.137 16.0867 152.936 9.69631 146.335 5.50948C137.533 0.000500711 127.85 -1.54201 117.948 1.54302C110.906 3.74661 105.185 8.15379 100.124 13.6628C93.7422 20.4939 89.1211 28.4269 85.3802 36.8005C85.1601 37.2412 84.9401 37.6819 84.72 38.1227C84.5 37.6819 84.2799 37.2412 84.0599 36.8005C82.0794 33.0544 80.319 29.3083 78.1185 25.7825C73.9375 18.731 69.0964 12.561 62.7148 7.49272C52.8125 0.22086 42.25 -1.98273 30.5872 1.98373C28.8268 2.64481 26.8464 3.30589 25.306 4.18733C16.944 8.59451 13.2031 16.0867 14.7435 25.3418C15.8437 31.0712 18.0443 36.3598 20.9049 41.428C21.125 41.6484 21.3451 42.0891 21.5651 42.5298H20.2448C14.7435 42.5298 9.24219 42.5298 3.74089 42.5298C1.10026 42.5298 0 43.4113 0 46.0556C0 58.8364 0 71.3969 0 84.1778C0 86.8221 0.880208 87.7035 3.74089 87.7035C7.26172 87.7035 11.0026 87.7035 14.7435 87.7035C14.7435 88.1442 14.7435 88.3646 14.7435 88.8053C14.7435 119.215 14.7435 149.624 14.7435 180.034C14.7435 182.899 15.6237 183.78 18.4844 183.78C35.8685 183.78 53.2526 183.78 70.4167 183.78C97.263 183.78 123.889 183.78 150.736 183.78C153.376 183.78 154.477 182.678 154.477 180.034C154.477 170.118 154.477 160.422 154.477 150.506V87.7035C154.917 87.7035 155.357 87.7035 155.797 87.7035C159.098 87.7035 162.398 87.7035 165.699 87.7035C167.9 87.7035 169 86.6017 169 84.3981C169 71.6173 169 58.6161 169 45.8352C169 43.4113 167.9 42.5298 165.479 42.5298ZM91.3216 37.2412C94.8424 29.749 99.2435 22.6975 104.965 16.7478C109.146 12.3406 113.987 8.81487 119.928 6.83164C127.63 4.40769 135.112 5.50948 141.934 9.47595C147.875 12.7813 149.855 18.2903 148.315 25.5622C146.995 31.5119 144.134 36.8005 140.833 41.6484C140.613 41.8688 140.173 42.0891 139.953 42.0891C139.733 42.0891 139.513 42.0891 139.073 42.0891C123.229 42.0891 107.165 42.0891 91.3216 42.0891C90.6615 42.0891 90.0013 42.0891 89.1211 42.0891C90.0013 40.5466 90.6615 39.0041 91.3216 37.2412ZM96.3828 48.2592V81.9742H72.6172V48.2592H96.3828ZM20.9049 26.8843C20.2448 24.4604 20.0247 22.0364 20.2448 19.3921C20.6849 15.646 22.6654 12.7813 25.526 10.5777C29.2669 7.93344 33.668 6.39092 38.069 5.9502C47.5312 4.84841 55.013 8.59451 61.6146 14.5442C67.776 20.2736 72.3971 27.1047 76.138 34.5969C77.4583 37.0209 78.5586 39.6652 79.8789 42.5298C78.9987 42.5298 78.5586 42.5298 78.1185 42.5298C61.8346 42.5298 45.5508 42.5298 29.2669 42.5298C28.3867 42.5298 27.9466 42.3095 27.7266 41.6484C24.8659 36.8005 22.2253 32.173 20.9049 26.8843ZM5.94141 81.9742V48.2592H66.6758V81.9742H5.94141ZM147.435 178.271C132.691 178.271 117.728 178.271 102.984 178.271C102.764 178.271 102.764 178.271 102.544 178.271C101.884 178.271 101.004 178.271 100.344 178.271C99.0234 178.271 97.4831 178.271 96.1628 178.271H72.6172V178.051C70.6367 178.051 68.6562 178.051 66.6758 178.051H20.4648V87.7035H66.6758H72.6172H96.3828H102.324H148.535V89.0257C148.535 111.502 148.535 133.979 148.535 156.235C148.535 163.066 148.535 169.898 148.535 176.949C148.535 178.051 148.315 178.271 147.435 178.271ZM163.059 81.9742H102.324V48.2592H163.059V81.9742Z" fill="#F9BEB4"/>
<path d="M82.6875 145.782C82.6875 147.376 82.5156 148.595 82.1719 149.439C81.8594 150.251 81.4219 150.657 80.8594 150.657H75.4688V161.626C75.4688 161.939 75.375 162.22 75.1875 162.47C75 162.689 74.6719 162.876 74.2031 163.032C73.7344 163.189 73.125 163.298 72.375 163.361C71.625 163.454 70.6562 163.501 69.4688 163.501C68.3438 163.501 67.3906 163.454 66.6094 163.361C65.8594 163.298 65.25 163.189 64.7812 163.032C64.3438 162.876 64.0312 162.689 63.8438 162.47C63.6875 162.22 63.6094 161.939 63.6094 161.626V150.657H40.4062C39.9688 150.657 39.5781 150.611 39.2344 150.517C38.8906 150.392 38.5938 150.142 38.3438 149.767C38.125 149.361 37.9531 148.798 37.8281 148.079C37.7344 147.329 37.6875 146.345 37.6875 145.126C37.6875 144.126 37.7031 143.267 37.7344 142.548C37.7969 141.798 37.875 141.126 37.9688 140.532C38.0938 139.939 38.25 139.376 38.4375 138.845C38.6562 138.314 38.9219 137.751 39.2344 137.157L58.0781 103.923C58.2344 103.642 58.5 103.407 58.875 103.22C59.25 103.001 59.7656 102.829 60.4219 102.704C61.1094 102.548 61.9688 102.439 63 102.376C64.0312 102.314 65.2812 102.282 66.75 102.282C68.3438 102.282 69.7031 102.329 70.8281 102.423C71.9531 102.486 72.8438 102.611 73.5 102.798C74.1875 102.954 74.6875 103.157 75 103.407C75.3125 103.657 75.4688 103.954 75.4688 104.298V140.814H80.8594C81.3594 140.814 81.7812 141.204 82.125 141.986C82.5 142.736 82.6875 144.001 82.6875 145.782ZM63.6094 112.923H63.5156L47.5312 140.814H63.6094V112.923ZM128.906 143.532C128.906 146.814 128.328 149.751 127.172 152.345C126.047 154.907 124.438 157.079 122.344 158.861C120.281 160.611 117.781 161.954 114.844 162.892C111.938 163.829 108.703 164.298 105.141 164.298C103.266 164.298 101.484 164.173 99.7969 163.923C98.1094 163.704 96.5938 163.423 95.25 163.079C93.9062 162.704 92.7969 162.345 91.9219 162.001C91.0781 161.626 90.5156 161.329 90.2344 161.111C89.9844 160.861 89.7969 160.595 89.6719 160.314C89.5469 160.032 89.4375 159.704 89.3438 159.329C89.2812 158.923 89.2344 158.423 89.2031 157.829C89.1719 157.236 89.1562 156.532 89.1562 155.72C89.1562 154.845 89.1875 154.111 89.25 153.517C89.3125 152.892 89.4062 152.392 89.5312 152.017C89.6875 151.642 89.8594 151.376 90.0469 151.22C90.2344 151.064 90.4531 150.986 90.7031 150.986C91.0156 150.986 91.4844 151.173 92.1094 151.548C92.7656 151.892 93.6094 152.282 94.6406 152.72C95.7031 153.157 96.9844 153.564 98.4844 153.939C99.9844 154.282 101.781 154.454 103.875 154.454C105.688 154.454 107.328 154.267 108.797 153.892C110.297 153.517 111.562 152.923 112.594 152.111C113.625 151.267 114.422 150.22 114.984 148.97C115.547 147.72 115.828 146.22 115.828 144.47C115.828 142.97 115.594 141.642 115.125 140.486C114.656 139.298 113.922 138.298 112.922 137.486C111.922 136.673 110.625 136.064 109.031 135.657C107.438 135.251 105.5 135.048 103.219 135.048C101.406 135.048 99.75 135.142 98.25 135.329C96.7812 135.517 95.3906 135.611 94.0781 135.611C93.1719 135.611 92.5156 135.392 92.1094 134.954C91.7344 134.486 91.5469 133.642 91.5469 132.423V106.079C91.5469 104.829 91.7812 103.939 92.25 103.407C92.75 102.845 93.5312 102.564 94.5938 102.564H123.328C123.609 102.564 123.875 102.657 124.125 102.845C124.375 103.032 124.578 103.329 124.734 103.736C124.922 104.142 125.047 104.689 125.109 105.376C125.203 106.032 125.25 106.829 125.25 107.767C125.25 109.642 125.078 111.001 124.734 111.845C124.422 112.689 123.953 113.111 123.328 113.111H101.766V126.095C102.859 125.97 103.938 125.892 105 125.861C106.094 125.829 107.234 125.814 108.422 125.814C111.703 125.814 114.609 126.204 117.141 126.986C119.703 127.736 121.844 128.861 123.562 130.361C125.312 131.829 126.641 133.673 127.547 135.892C128.453 138.079 128.906 140.626 128.906 143.532Z" fill="white"/>
</g>
<defs>
<clipPath id="clip0_374_992">
<rect width="169" height="184" fill="white"/>
</clipPath>
</defs>
</svg>
