<svg width="40" height="40" viewBox="0 0 40 40" fill="none" xmlns="http://www.w3.org/2000/svg">
<circle cx="20" cy="20" r="19" stroke="#545456" stroke-width="2"/>
<path d="M26.5327 14.8667C26.5327 15.6399 25.9059 16.2667 25.1327 16.2667C24.3595 16.2667 23.7327 15.6399 23.7327 14.8667C23.7327 14.0935 24.3595 13.4667 25.1327 13.4667C25.9059 13.4667 26.5327 14.0935 26.5327 14.8667Z" fill="#545456"/>
<path fill-rule="evenodd" clip-rule="evenodd" d="M19.9993 24.6667C22.5767 24.6667 24.666 22.5773 24.666 20C24.666 17.4227 22.5767 15.3333 19.9993 15.3333C17.422 15.3333 15.3327 17.4227 15.3327 20C15.3327 22.5773 17.422 24.6667 19.9993 24.6667ZM19.9993 22.8C21.5457 22.8 22.7994 21.5464 22.7994 20C22.7994 18.4536 21.5457 17.2 19.9993 17.2C18.453 17.2 17.1993 18.4536 17.1993 20C17.1993 21.5464 18.453 22.8 19.9993 22.8Z" fill="#545456"/>
<path fill-rule="evenodd" clip-rule="evenodd" d="M10.666 19.6267C10.666 16.4904 10.666 14.9222 11.2764 13.7243C11.8133 12.6706 12.67 11.8139 13.7237 11.277C14.9216 10.6667 16.4897 10.6667 19.626 10.6667H20.3727C23.509 10.6667 25.0771 10.6667 26.275 11.277C27.3287 11.8139 28.1854 12.6706 28.7223 13.7243C29.3327 14.9222 29.3327 16.4904 29.3327 19.6267V20.3733C29.3327 23.5096 29.3327 25.0778 28.7223 26.2757C28.1854 27.3294 27.3287 28.1861 26.275 28.723C25.0771 29.3333 23.509 29.3333 20.3727 29.3333H19.626C16.4897 29.3333 14.9216 29.3333 13.7237 28.723C12.67 28.1861 11.8133 27.3294 11.2764 26.2757C10.666 25.0778 10.666 23.5096 10.666 20.3733V19.6267ZM19.626 12.5333H20.3727C21.9716 12.5333 23.0586 12.5348 23.8987 12.6034C24.7171 12.6703 25.1356 12.7915 25.4276 12.9402C26.1301 13.2982 26.7012 13.8693 27.0591 14.5718C27.2079 14.8637 27.3291 15.2822 27.3959 16.1006C27.4646 16.9408 27.466 18.0277 27.466 19.6267V20.3733C27.466 21.9723 27.4646 23.0592 27.3959 23.8994C27.3291 24.7178 27.2079 25.1363 27.0591 25.4282C26.7012 26.1307 26.1301 26.7018 25.4276 27.0597C25.1356 27.2085 24.7171 27.3297 23.8987 27.3966C23.0586 27.4652 21.9716 27.4667 20.3727 27.4667H19.626C18.0271 27.4667 16.9401 27.4652 16.1 27.3966C15.2816 27.3297 14.8631 27.2085 14.5711 27.0597C13.8686 26.7018 13.2975 26.1307 12.9396 25.4282C12.7908 25.1363 12.6696 24.7178 12.6028 23.8994C12.5341 23.0592 12.5327 21.9723 12.5327 20.3733V19.6267C12.5327 18.0277 12.5341 16.9408 12.6028 16.1006C12.6696 15.2822 12.7908 14.8637 12.9396 14.5718C13.2975 13.8693 13.8686 13.2982 14.5711 12.9402C14.8631 12.7915 15.2816 12.6703 16.1 12.6034C16.9401 12.5348 18.0271 12.5333 19.626 12.5333Z" fill="#545456"/>
</svg>
