<svg width="19" height="22" viewBox="0 0 19 22" fill="none" xmlns="http://www.w3.org/2000/svg">
<g clip-path="url(#clip0_374_1054)">
<path d="M5.54167 21.8493C6.80833 21.6986 7.75833 21.0959 8.70833 20.4932C10.1333 19.589 11.4 18.2329 12.5083 17.0274C14.25 14.9178 15.9917 12.8082 17.2583 10.3973C18.05 9.0411 18.525 7.68494 18.8417 6.32877C19 5.27398 19 4.0685 18.525 3.01371C18.05 2.1096 17.4167 1.35617 16.625 0.904116C16.15 0.602747 15.5167 0.301377 15.0417 0.150692C14.5667 -0.150678 14.25 6.92252e-06 13.9333 0.301377C13.4583 0.602747 13.3 1.0548 12.9833 1.35617C12.5083 2.1096 11.875 2.86302 11.4 3.61645C11.0833 4.0685 10.925 4.52055 11.2417 4.97261C11.4 5.12329 11.5583 5.27398 11.7167 5.42466C12.35 5.87672 12.9833 6.32877 13.775 6.78083C14.0917 7.0822 14.25 7.38357 14.0917 7.68494C14.0917 8.13699 13.9333 8.58905 13.775 8.89042C13.3 10.3973 12.35 11.4521 11.5583 12.6575C10.7667 13.7123 9.81667 14.7671 8.70833 15.6712C8.39167 15.9726 7.91667 16.1233 7.6 16.4247C7.28333 16.5753 6.80833 16.5753 6.49167 16.274C5.85833 15.8219 5.06667 15.3699 4.43333 14.9178C3.8 14.4658 3.16667 14.6164 2.69167 15.0685C1.9 15.9726 1.10833 17.0274 0.316667 18.0822C0.158333 18.2329 0.158333 18.3836 0 18.5343C0 18.9863 0 19.2877 0.316667 19.589C0.95 20.1918 1.425 20.7945 2.21667 21.2466C3.16667 21.8493 4.43333 22 5.54167 21.8493Z" fill="#545456"/>
</g>
<defs>
<clipPath id="clip0_374_1054">
<rect width="19" height="22" fill="white"/>
</clipPath>
</defs>
</svg>
