<svg width="272" height="180" viewBox="0 0 272 180" fill="none" xmlns="http://www.w3.org/2000/svg">
<g clip-path="url(#clip0_374_937)">
<path d="M14.2581 85.6232C10.6935 85.6232 7.12903 85.6232 3.56452 85.6232C0.82258 85.6232 0 84.8025 0 82.067C0 69.757 0 57.1734 0 44.8633C0 42.4013 0.82258 41.3071 3.56452 41.3071C9.04839 41.3071 14.2581 41.3071 19.7419 41.3071C20.0161 41.3071 20.5645 41.3071 21.1129 41.3071C20.8387 40.76 20.8387 40.4864 20.5645 40.2129C17.8226 35.2889 15.3548 30.0913 14.5323 24.6202C12.8871 15.5928 16.4516 8.2068 24.6774 4.10345C26.3226 3.28278 28.2419 2.46212 29.8871 1.915C41.4032 -1.91478 51.8226 0.273665 61.1452 7.65968C67.4516 12.5837 72.3871 18.6019 76.2258 25.4408C78.4193 28.9971 80.0645 32.5533 81.9839 36.3831C82.2581 36.6566 82.2581 37.2038 82.5322 37.7509C82.8064 37.2038 83.0806 36.9302 83.0806 36.3831C86.9193 28.1764 91.3064 20.5168 97.6129 13.6779C102.548 8.48035 108.032 4.10345 115.161 1.915C125.032 -1.09412 134.355 0.547222 143.129 5.74479C149.71 9.84813 151.903 15.8664 151.081 23.2524C150.532 29.5442 147.79 35.0153 144.774 40.4864C144.5 40.76 144.5 41.0335 144.226 41.5807C144.774 41.5807 145.323 41.5807 145.871 41.5807C151.355 41.5807 156.564 41.5807 162.048 41.5807C164.516 41.5807 165.339 42.6749 165.339 44.8633C165.339 57.4469 165.339 70.0305 165.339 82.6141C165.339 84.8025 164.242 85.8968 162.048 85.8968C158.758 85.8968 155.468 85.8968 152.177 85.8968C151.903 85.8968 151.355 85.8968 150.806 85.8968C150.806 86.4439 150.806 86.991 150.806 87.2645C150.806 107.234 150.806 127.204 150.806 147.173C150.806 156.748 150.806 166.322 150.806 176.17C150.806 178.906 149.71 179.727 147.242 179.727C120.919 179.727 94.871 179.727 68.5484 179.727C51.5484 179.727 34.5484 179.727 17.5484 179.727C14.8065 179.727 13.9839 178.906 13.9839 176.17C13.9839 146.353 13.9839 116.809 13.9839 86.991C14.2581 86.4439 14.2581 86.1703 14.2581 85.6232ZM145.597 85.8968C130.516 85.8968 115.435 85.8968 100.355 85.8968C100.355 115.441 100.355 144.711 100.355 173.982C100.629 173.982 100.903 173.982 100.903 173.982C115.435 173.982 129.968 173.982 144.5 173.982C145.323 173.982 145.597 173.708 145.597 172.888C145.597 166.049 145.597 159.483 145.597 152.644C145.597 130.76 145.597 108.875 145.597 86.991C145.597 86.7174 145.597 86.1703 145.597 85.8968ZM65.2581 173.982C65.2581 144.438 65.2581 115.167 65.2581 85.8968C50.1774 85.8968 35.0968 85.8968 20.0161 85.8968C20.0161 115.167 20.0161 144.711 20.0161 173.982C35.0968 173.982 50.1774 173.982 65.2581 173.982ZM71.2903 85.8968C71.2903 115.441 71.2903 144.711 71.2903 173.982C78.9677 173.982 86.6452 173.982 94.5968 173.982C94.5968 144.711 94.5968 115.167 94.5968 85.8968C86.6452 85.8968 78.9677 85.8968 71.2903 85.8968ZM100.355 80.1521C120.371 80.1521 140.113 80.1521 159.855 80.1521C159.855 69.2098 159.855 58.2676 159.855 47.3253C139.839 47.3253 120.097 47.3253 100.355 47.3253C100.355 57.994 100.355 68.9363 100.355 80.1521ZM65.2581 47.0518C45.2419 47.0518 25.5 47.0518 5.75806 47.0518C5.75806 57.994 5.75806 68.9363 5.75806 80.1521C25.5 80.1521 45.5161 80.1521 65.2581 80.1521C65.2581 68.9363 65.2581 57.994 65.2581 47.0518ZM87.1935 41.3071C88.0161 41.3071 88.8387 41.3071 89.3871 41.3071C105.016 41.3071 120.645 41.3071 136.274 41.3071C136.548 41.3071 136.823 41.3071 137.097 41.3071C137.371 41.3071 137.919 41.0335 137.919 40.76C141.21 35.836 143.952 30.6384 145.048 24.8937C146.694 17.7813 144.5 12.5837 138.742 9.30102C131.887 5.47123 124.758 4.37701 117.081 6.56546C111.597 8.75391 106.935 12.0366 102.823 16.4135C97.3387 22.1582 92.9516 28.9971 89.6613 36.3831C88.8387 38.0244 88.0161 39.6658 87.1935 41.3071ZM78.4193 41.3071C77.0484 38.5715 75.9516 36.1095 74.5806 33.6475C70.7419 26.5351 66.3548 19.6962 60.3226 14.225C53.7419 8.48035 46.3387 4.92412 37.5645 6.01835C33.1774 6.56546 28.7903 7.93324 25.2258 10.3952C22.2097 12.5837 20.2903 15.3193 20.0161 18.8755C19.7419 21.3375 20.0161 23.7995 20.5645 25.988C21.9355 31.1855 24.4032 35.836 27.1452 40.4864C27.6935 41.0335 27.9677 41.3071 28.7903 41.3071C44.6935 41.3071 60.5968 41.3071 76.7742 41.3071C77.0484 41.3071 77.5968 41.3071 78.4193 41.3071ZM71.2903 80.1521C78.9677 80.1521 86.6452 80.1521 94.5968 80.1521C94.5968 69.2098 94.5968 58.2676 94.5968 47.0518C86.9193 47.0518 79.2419 47.0518 71.2903 47.0518C71.2903 57.994 71.2903 68.9363 71.2903 80.1521Z" fill="#F15D43"/>
<path d="M180.419 122.827C178.225 122.827 176.032 122.827 173.838 122.827C172.193 122.827 171.645 122.28 171.645 120.638C171.645 113.252 171.645 105.593 171.645 98.2066C171.645 96.5652 172.193 96.0181 173.838 96.0181C177.128 96.0181 180.419 96.0181 183.709 96.0181C183.983 96.0181 184.257 96.0181 184.532 96.0181C184.532 95.7446 184.257 95.471 184.257 95.471C182.612 92.4619 181.241 89.4528 180.693 86.1701C179.596 80.699 181.79 76.3221 186.999 73.5865C188.096 73.0394 189.193 72.7658 190.29 72.2187C197.145 70.0303 203.451 71.1245 209.209 75.5014C213.048 78.5105 216.064 82.0668 218.257 86.1701C219.628 88.3586 220.451 90.547 221.822 92.7355C221.822 93.009 222.096 93.2826 222.096 93.5561C222.096 93.5561 222.096 93.2826 222.096 93.009C224.29 88.085 227.032 83.4345 230.87 79.3312C233.886 76.0485 237.177 73.5865 241.564 72.2187C247.596 70.3038 253.08 71.3981 258.29 74.6807C262.128 77.1427 263.499 80.699 263.225 85.3494C262.951 89.1792 261.306 92.4619 259.386 95.7446C259.386 96.0181 259.112 96.0181 259.112 96.5652C259.386 96.5652 259.661 96.5652 259.935 96.5652C263.225 96.5652 266.516 96.5652 269.806 96.5652C271.177 96.5652 271.999 97.1124 271.999 98.4801C271.999 106.14 271.999 113.526 271.999 121.185C271.999 122.553 271.451 123.1 270.08 123.1C268.161 123.1 266.241 123.1 264.048 123.1C263.774 123.1 263.499 123.1 263.225 123.1C263.225 123.374 263.225 123.647 263.225 123.921C263.225 135.957 263.225 147.994 263.225 160.03C263.225 165.775 263.225 171.52 263.225 177.538C263.225 179.179 262.677 179.726 261.032 179.726C245.128 179.726 229.499 179.726 213.596 179.726C203.451 179.726 193.032 179.726 182.886 179.726C181.241 179.726 180.693 179.179 180.693 177.538C180.693 159.483 180.693 141.702 180.693 123.647C180.419 123.374 180.419 123.1 180.419 122.827ZM259.661 123.1C250.612 123.1 241.564 123.1 232.241 123.1C232.241 140.881 232.241 158.663 232.241 176.17C232.516 176.17 232.516 176.17 232.516 176.17C241.29 176.17 250.064 176.17 258.838 176.17C259.386 176.17 259.386 175.897 259.386 175.623C259.386 171.52 259.386 167.416 259.386 163.587C259.386 150.456 259.386 137.052 259.386 123.921C259.661 123.647 259.661 123.374 259.661 123.1ZM211.403 176.17C211.403 158.389 211.403 140.608 211.403 123.1C202.354 123.1 193.306 123.1 184.257 123.1C184.257 140.881 184.257 158.663 184.257 176.17C193.032 176.17 202.08 176.17 211.403 176.17ZM214.967 123.1C214.967 140.881 214.967 158.663 214.967 176.17C219.628 176.17 224.29 176.17 228.951 176.17C228.951 158.389 228.951 140.608 228.951 123.1C224.29 123.1 219.628 123.1 214.967 123.1ZM232.516 119.544C244.58 119.544 256.37 119.544 268.435 119.544C268.435 112.979 268.435 106.413 268.435 99.5744C256.37 99.5744 244.58 99.5744 232.516 99.5744C232.516 106.14 232.516 112.979 232.516 119.544ZM211.403 99.5744C199.338 99.5744 187.548 99.5744 175.483 99.5744C175.483 106.14 175.483 112.979 175.483 119.544C187.548 119.544 199.338 119.544 211.403 119.544C211.403 112.979 211.403 106.14 211.403 99.5744ZM224.564 96.2917C225.112 96.2917 225.386 96.2917 225.935 96.2917C235.257 96.2917 244.854 96.2917 254.177 96.2917C254.451 96.2917 254.451 96.2917 254.725 96.2917C254.999 96.2917 255.274 96.2917 255.274 96.0181C257.193 93.009 258.838 89.9999 259.661 86.4437C260.483 82.3403 259.387 79.0576 255.822 77.1428C251.709 74.9543 247.322 74.1336 242.661 75.5014C239.096 76.5956 236.354 78.7841 233.886 81.2461C230.596 84.8023 227.854 88.9057 225.935 93.2826C225.386 94.1032 225.112 95.1975 224.564 96.2917ZM219.08 96.2917C218.257 94.6503 217.709 93.009 216.886 91.6412C214.693 87.2643 211.951 83.161 208.386 79.8783C204.548 76.3221 199.886 74.1336 194.677 74.9543C191.935 75.2279 189.467 76.0485 187.274 77.6899C185.628 79.0576 184.532 80.699 184.257 82.8874C183.983 84.2552 184.257 85.8965 184.532 87.2643C185.354 90.547 186.999 93.2826 188.645 96.0181C188.919 96.2917 189.193 96.5652 189.741 96.5652C199.338 96.5652 208.935 96.5652 218.532 96.5652C218.532 96.2917 218.806 96.2917 219.08 96.2917ZM214.967 119.544C219.628 119.544 224.29 119.544 228.951 119.544C228.951 112.979 228.951 106.413 228.951 99.5744C224.29 99.5744 219.628 99.5744 214.967 99.5744C214.967 106.14 214.967 112.979 214.967 119.544Z" fill="#777777" stroke="#777777" stroke-width="0.25" stroke-miterlimit="10"/>
<path d="M161.227 44.3159H3.83984V80.1518H161.227V44.3159Z" fill="#F15D43"/>
<path d="M233.064 98.2065H211.951V177.538H233.064V98.2065Z" fill="#777777" stroke="#777777" stroke-width="0.25" stroke-miterlimit="10"/>
</g>
<defs>
<clipPath id="clip0_374_937">
<rect width="272" height="180" fill="white"/>
</clipPath>
</defs>
</svg>
