<svg width="40" height="40" viewBox="0 0 40 40" fill="none" xmlns="http://www.w3.org/2000/svg">
<circle cx="20" cy="20" r="19" stroke="#545456" stroke-width="2"/>
<path d="M25.709 21.6303C25.5175 21.3705 25.4746 21.1075 25.5792 20.841C25.8403 20.13 29.6432 15.6143 28.059 15.6143C26.9704 15.6288 25.6612 15.6143 24.6175 15.6143C24.4238 15.6615 24.2984 15.7632 24.22 15.9701C23.6097 17.3773 22.8628 19.0946 21.7683 20.1984C21.6243 20.3145 21.5345 20.3095 21.3705 20.2666C20.6027 19.4583 21.4214 16.689 20.9545 15.5947C20.8624 15.3805 20.661 15.2838 20.4549 15.2293C19.4126 14.9809 17.032 15.1288 16.6435 15.6288C16.5325 15.7718 16.517 15.8498 16.5972 15.8626C16.9673 15.921 17.2293 16.0607 17.3834 16.2815C17.6744 16.9221 17.8887 20.3346 17.032 20.3346C16.1752 20.3346 14.7936 16.9856 14.4141 16.0572C14.3131 15.7777 14.0559 15.6174 13.785 15.5701L11.2503 15.5895C10.8047 15.5895 10.5557 15.8093 10.7136 16.2521C12.0338 19.5292 14.9229 25.8812 19.3539 25.7222C19.7978 25.7222 20.5615 25.8926 20.9081 25.5078C21.3846 24.8758 20.8035 23.7501 21.6205 23.3208C21.8265 23.2112 22.04 23.3031 22.217 23.4378C23.1257 24.1297 23.6082 25.3442 24.7288 25.7129C24.9258 25.7778 25.0984 25.794 25.2467 25.7616L27.6148 25.7227C28.0545 25.7227 28.4876 25.527 28.3966 25.0014C28.0513 23.8742 26.6756 22.7155 25.709 21.6303Z" fill="#545456"/>
</svg>
